<svg xmlns="http://www.w3.org/2000/svg" viewBox="0 0 472.5 471.62"><defs><style>.cls-1{font-size:198.11px;font-family:Lobster-Regular, Lobster;letter-spacing:0.04em;}.cls-1,.cls-4{fill:#010101;}.cls-2{fill:#231f20;}.cls-3{fill:none;stroke:#231f20;stroke-miterlimit:10;stroke-width:15px;}.cls-4{font-size:21px;font-family:Roboto-Light, Roboto;font-weight:300;}</style></defs><g id="Layer_2" data-name="Layer 2"><g id="Layer_1-2" data-name="Layer 1"><text class="cls-1" transform="translate(121.77 261.63)">B</text><text class="cls-1" transform="translate(227.8 361.41)">G</text><polygon class="cls-2" points="192.25 390.13 279.55 115.3 277.47 115.3 190.18 390.13 192.25 390.13"/><path class="cls-3" d="M241.48,17.08C364.93,17.08,465,117.15,465,240.6S364.93,464.12,241.48,464.12a222.79,222.79,0,0,1-155.8-63.25"/><text class="cls-4" transform="translate(76.65 391.72) rotate(-130.89)">B</text><text class="cls-4" transform="translate(67.89 381.55) rotate(-127.59)">E</text><text class="cls-4" transform="translate(60.24 371.67) rotate(-124.02)">N</text><text class="cls-4" transform="translate(51.69 358.76) rotate(-121.31)"> </text><text class="cls-4" transform="matrix(-0.48, -0.88, 0.88, -0.48, 48.65, 353.94)">G</text><text class="cls-4" transform="translate(41.54 340.86) rotate(-114.96)">R</text><text class="cls-4" transform="translate(35.71 328.27) rotate(-111.48)">Z</text><text class="cls-4" transform="translate(30.93 316.07) rotate(-108.1)">Y</text><text class="cls-4" transform="translate(26.86 303.59) rotate(-104.67)">B</text><text class="cls-4" transform="translate(23.46 290.64) rotate(-101.05)">O</text><text class="cls-4" transform="translate(20.58 276.21) rotate(-96.68)">W</text><text class="cls-4" transform="translate(18.46 257) rotate(-92.57)">S</text><text class="cls-4" transform="translate(17.87 244.04) rotate(-89.07)">K</text><text class="cls-4" transform="matrix(0.06, -1, 1, 0.06, 18.18, 230.19)">I</text><text class="cls-4" transform="translate(18.55 223.95) rotate(-85.14)"> </text><text class="cls-4" transform="translate(19.04 218.22) rotate(-83.56)">-</text><text class="cls-4" transform="translate(19.81 211.58) rotate(-81.96)"> </text><text class="cls-4" transform="translate(20.42 205.96) rotate(-78.74)">W</text><text class="cls-4" transform="translate(24.33 187.03) rotate(-74.65)">E</text><text class="cls-4" transform="translate(27.65 174.98) rotate(-71.3)">B</text><text class="cls-4" transform="matrix(0.36, -0.93, 0.93, 0.36, 32.06, 162.25)"> </text><text class="cls-4" transform="translate(34.04 156.9) rotate(-66.23)">D</text><text class="cls-4" transform="translate(39.83 143.85) rotate(-62.79)">E</text><text class="cls-4" transform="matrix(0.51, -0.86, 0.86, 0.51, 45.55, 132.73)">V</text><text class="cls-4" transform="translate(52.45 121.11) rotate(-56.12)">E</text><text class="cls-4" transform="matrix(0.6, -0.8, 0.8, 0.6, 59.44, 110.74)">L</text><text class="cls-4" transform="translate(65.99 101.96) rotate(-49.84)">O</text><text class="cls-4" transform="translate(75.53 90.72) rotate(-46.25)">P</text><text class="cls-4" transform="translate(84.87 81) rotate(-42.94)">E</text><text class="cls-4" transform="matrix(0.77, -0.64, 0.64, 0.77, 94.02, 72.48)">R</text><text class="cls-4" transform="translate(104.82 63.69) rotate(-37.08)"> </text><text class="cls-4" transform="translate(109.33 60.19) rotate(-34.62)">&amp;</text><text class="cls-4" transform="matrix(0.85, -0.53, 0.53, 0.85, 120.51, 52.59)"> </text><text class="cls-4" transform="matrix(0.87, -0.49, 0.49, 0.87, 125.3, 49.48)">D</text><text class="cls-4" transform="translate(137.74 42.46) rotate(-26.15)">E</text><text class="cls-4" transform="translate(148.98 36.96) rotate(-22.86)">S</text><text class="cls-4" transform="translate(161.02 31.97) rotate(-20.38)">I</text><text class="cls-4" transform="matrix(0.95, -0.3, 0.3, 0.95, 166.78, 29.74)">G</text><text class="cls-4" transform="translate(180.96 25.24) rotate(-13.74)">N</text><text class="cls-4" transform="translate(195.97 21.63) rotate(-10.14)">E</text><text class="cls-4" transform="translate(208.27 19.42) rotate(-6.76)">R</text></g></g></svg>