<svg xmlns="http://www.w3.org/2000/svg" viewBox="0 0 472.5 471.62">
  <defs>
    <style>
      .cls-1{font-size:198.11px;font-family:Lobster-Regular,Lobster;letter-spacing:.04em;fill:#010101}.cls-4{fill:#010101;font-size:21px;font-family:Roboto-Light,Roboto;font-weight:300}
    </style>
  </defs>
  <g id="Layer_2" data-name="Layer 2">
    <g id="Layer_1-2" data-name="Layer 1">
      <text class="cls-1" transform="translate(121.77 261.63)">B</text>
      <text class="cls-1" transform="translate(227.8 361.41)">G</text>
      <path fill="#231f20" d="m192.25 390.13 87.3-274.83h-2.08l-87.29 274.83h2.07z"/>
      <path d="M241.48 17.08C364.93 17.08 465 117.15 465 240.6S364.93 464.12 241.48 464.12a222.79 222.79 0 0 1-155.8-63.25" fill="none" stroke="#231f20" stroke-miterlimit="10" stroke-width="15"/>
      <text class="cls-4" transform="rotate(-130.89 127.8107 178.34984)">B</text>
      <text class="cls-4" transform="rotate(-127.59 127.83862 174.06831)">E</text>
      <text class="cls-4" transform="rotate(-124.02 128.88862 169.82665)">N</text>
      <text class="cls-4" transform="rotate(-121.31 126.6937 164.84976)"> </text>
      <text class="cls-4" transform="rotate(-118.7 129.34066 162.24339)">G</text>
      <text class="cls-4" transform="rotate(-114.96 129.42954 157.18786)">R</text>
      <text class="cls-4" transform="rotate(-111.48 129.65248 151.9734)">Z</text>
      <text class="cls-4" transform="rotate(-108.1 130.07357 146.81963)">Y</text>
      <text class="cls-4" transform="rotate(-104.67 130.60246 141.42821)">B</text>
      <text class="cls-4" transform="rotate(-101.05 131.4161 135.65913)">O</text>
      <text class="cls-4" transform="rotate(-96.68 133.16422 128.94982)">W</text>
      <text class="cls-4" transform="rotate(-92.57 132.09165 119.675)">S</text>
      <text class="cls-4" transform="rotate(-89.07 132.95182 112.93878)">K</text>
      <text class="cls-4" transform="rotate(-86.6 131.2801 105.2233)">I</text>
      <text class="cls-4" transform="rotate(-85.14 131.17494 101.8779)"> </text>
      <text class="cls-4" transform="rotate(-83.56 131.63866 98.45498)">-</text>
      <text class="cls-4" transform="rotate(-81.96 131.6883 94.38756)"> </text>
      <text class="cls-4" transform="rotate(-78.74 135.71383 90.53686)">W</text>
      <text class="cls-4" transform="rotate(-74.65 134.80993 77.5606)">E</text>
      <text class="cls-4" transform="rotate(-71.3 135.8047 68.215)">B</text>
      <text class="cls-4" transform="matrix(.36 -.93 .93 .36 32.06 162.25)"> </text>
      <text class="cls-4" transform="rotate(-66.23 137.29322 52.3563)">D</text>
      <text class="cls-4" transform="rotate(-62.79 137.7702 39.29259)">E</text>
      <text class="cls-4" transform="rotate(-59.3 139.29499 26.40063)">V</text>
      <text class="cls-4" transform="rotate(-56.12 139.82524 11.3573)">E</text>
      <text class="cls-4" transform="rotate(-53 140.46 -4.07)">L</text>
      <text class="cls-4" transform="rotate(-49.84 142.7217 -20.03672)">O</text>
      <text class="cls-4" transform="rotate(-46.25 143.98158 -43.07186)">P</text>
      <text class="cls-4" transform="rotate(-42.94 145.40832 -67.39316)">E</text>
      <text class="cls-4" transform="rotate(-39.6 147.05254 -94.05924)">R</text>
      <text class="cls-4" transform="rotate(-37.08 147.36432 -124.42932)"> </text>
      <text class="cls-4" transform="rotate(-34.62 151.22956 -145.30628)">&amp;</text>
      <text class="cls-4" transform="rotate(-31.8 151.4476 -184.51483)"> </text>
      <text class="cls-4" transform="rotate(-29.5 157.72062 -213.87004)">D</text>
      <text class="cls-4" transform="rotate(-26.15 160.28115 -275.30726)">E</text>
      <text class="cls-4" transform="rotate(-22.86 165.89356 -349.9535)">S</text>
      <text class="cls-4" transform="rotate(-20.38 169.43995 -431.9193)">I</text>
      <text class="cls-4" transform="matrix(.95 -.3 .3 .95 166.78 29.74)">G</text>
      <text class="cls-4" transform="rotate(-13.74 195.22588 -738.36315)">N</text>
      <text class="cls-4" transform="rotate(-10.14 219.88553 -1093.61619)">E</text>
      <text class="cls-4" transform="rotate(-6.76 268.54225 -1753.47731)">R</text>
    </g>
  </g>
</svg>