<svg xmlns="http://www.w3.org/2000/svg" viewBox="0 0 472.59 471.61">
  <defs>
    <style>
      .cls-5{isolation:isolate;fill:#010101;font-size:21px;font-family:Roboto-Light,Roboto;font-weight:300}
    </style>
  </defs>
  <g id="Layer_2" data-name="Layer 2">
    <g id="Layer_1-2" data-name="Layer 1">
      <g id="Layer_2-2" data-name="Layer 2">
        <g id="Layer_1-2-2" data-name="Layer 1-2">
          <text transform="translate(121.86 261.62)" style="isolation:isolate" letter-spacing=".04em" font-size="198.11" font-family="Lobster-Regular,Lobster" fill="#010101">B</text>
          <text transform="translate(227.89 361.4)" style="isolation:isolate" letter-spacing=".04em" font-size="198.11" font-family="Lobster-Regular,Lobster" fill="#010101">G</text>
          <path fill="#231f20" d="m192.34 390.12 87.3-274.83h-2.08l-87.29 274.83h2.07z"/>
          <path d="M241.57 17.07c123.45 0 223.52 100.07 223.52 223.52S365 464.11 241.57 464.11a222.8 222.8 0 0 1-155.8-63.25" fill="none" stroke="#231f20" stroke-miterlimit="10" stroke-width="15"/>
          <text class="cls-5" transform="rotate(-130.89 127.85342 178.32428)">B</text>
          <text class="cls-5" transform="rotate(-127.6 127.7484 174.29737)">E</text>
          <text class="cls-5" transform="rotate(-124.02 128.93096 169.79774)">N</text>
          <text transform="rotate(-118.61 129.42324 162.49803)" style="isolation:isolate" font-size="21.05" font-family="Roboto-Light,Roboto" font-weight="300" fill="#010101">G</text>
          <text class="cls-5" transform="rotate(-114.8 129.82531 156.8373)">R</text>
          <text class="cls-5" transform="rotate(-111.7 129.23182 151.87913)">Z</text>
          <text class="cls-5" transform="rotate(-108.1 130.11495 146.782)">Y</text>
          <text class="cls-5" transform="rotate(-104.5 131.08576 141.14145)">B</text>
          <text class="cls-5" transform="rotate(-101.05 131.45699 135.61707)">O</text>
          <text class="cls-5" transform="rotate(-96.68 133.20477 128.90479)">W</text>
          <text class="cls-5" transform="rotate(-92.57 132.13187 119.62697)">S</text>
          <text class="cls-5" transform="rotate(-88.9 133.45787 112.8287)">K</text>
          <text transform="rotate(-86.6 131.3197 105.17052)" style="isolation:isolate" font-size="21.04" font-family="Roboto-Light,Roboto" font-weight="300" fill="#010101">I</text>
          <text class="cls-5" transform="matrix(.11 -.99 .99 .11 19.13 218.21)">-</text>
          <text class="cls-5" transform="rotate(-78.74 135.75273 90.47702)">W</text>
          <text class="cls-5" transform="matrix(.26 -.96 .96 .26 24.42 187.02)">E</text>
          <text class="cls-5" transform="rotate(-71.3 135.84273 68.14726)">B</text>
          <text class="cls-5" transform="rotate(-66.23 137.33055 52.28232)">D</text>
          <text class="cls-5" transform="rotate(-62.79 137.807 39.21385)">E</text>
          <text transform="rotate(-59.33 139.32678 26.29543)" style="isolation:isolate" font-size="21" font-family="Roboto-Light,Roboto" font-weight="300" fill="#010101">V</text>
          <text class="cls-5" transform="rotate(-56 140.09133 10.96408)">E</text>
          <text class="cls-5" transform="rotate(-53 140.495 -4.165)">L</text>
          <text class="cls-5" transform="matrix(.64 -.76 .76 .64 66.08 101.95)">O</text>
          <text class="cls-5" transform="matrix(.69 -.72 .72 .69 75.62 90.71)">P</text>
          <text class="cls-5" transform="rotate(-42.94 145.4406 -67.51257)">E</text>
          <text transform="rotate(-39.6 147.08346 -94.18876)" style="isolation:isolate" font-size="21.03" font-family="Roboto-Light,Roboto" font-weight="300" fill="#010101">R</text>
          <text class="cls-5" transform="rotate(-35 151.12846 -144.24013)">&amp;</text>
          <text transform="rotate(-29.39 157.01274 -214.32912)" style="isolation:isolate" font-size="20.97" font-family="Roboto-Light,Roboto" font-weight="300" fill="#010101">D</text>
          <text class="cls-5" transform="rotate(-26.15 160.30462 -275.50602)">E</text>
          <text class="cls-5" transform="rotate(-23 166.15836 -348.147)">S</text>
          <text class="cls-5" transform="rotate(-20.38 169.45713 -432.17464)">I</text>
          <text transform="rotate(-17.53 179.84657 -526.2786)" style="isolation:isolate" font-size="20.92" font-family="Roboto-Light,Roboto" font-weight="300" fill="#010101">G</text>
          <text class="cls-5" transform="rotate(-13.74 195.22938 -738.74165)">N</text>
          <text class="cls-5" transform="rotate(-10.14 219.87417 -1094.1284)">E</text>
          <text class="cls-5" transform="matrix(.99 -.12 .12 .99 208.36 19.41)">R</text>
        </g>
      </g>
    </g>
  </g>
</svg>
